# xmcd
#
# Track frame offsets:
#	150
#	13483
#	31003
#	46193
#	63373
#	77600
#	92298
#	108843
#	125045
#	141888
#
# Disc length: 2154 seconds
#
# Revision: 6
# Processed by: cddbd v1.5.2PL0 Copyright (c) Steve Scherf et al.
# Submitted via: EZCDAudioConverter 6.0.5.1
#
DISCID=7708680a
DTITLE=Shelby Lynne - Soft Talk
DYEAR=1991
DGENRE=Country
TTITLE0=Don't Cross Your Heart
TTITLE1=I've Learned To Live
TTITLE2=Alive And Well
TTITLE3=A Lighter Shade Of Blue
TTITLE4=It Must Be You
TTITLE5=You Can't Break A Broken Heart
TTITLE6=Soft Talk
TTITLE7=The Very First Lasting Love (featuring Les Taylor)
TTITLE8=Stop Me
TTITLE9=It Might Be Me
EXTD=
EXTT0=
EXTT1=
EXTT2=
EXTT3=
EXTT4=
EXTT5=
EXTT6=
EXTT7=
EXTT8=
EXTT9=
PLAYORDER=
